<?xml version="1.0" encoding="utf-8"?>
<!-- Generator: Adobe Illustrator 16.0.0, SVG Export Plug-In . SVG Version: 6.00 Build 0)  -->
<!DOCTYPE svg PUBLIC "-//W3C//DTD SVG 1.1//EN" "http://www.w3.org/Graphics/SVG/1.1/DTD/svg11.dtd">
<svg version="1.1" id="Слой_1" xmlns="http://www.w3.org/2000/svg" xmlns:xlink="http://www.w3.org/1999/xlink" x="0px" y="0px"
	 width="24.013px" height="23.644px" viewBox="0 0 24.013 23.644" enable-background="new 0 0 24.013 23.644" xml:space="preserve">
<g>
	<path fill="#959AA3" d="M24.006,2.37c0-2.61,0.251-2.363-2.4-2.363h-19.2c-2.651,0-2.4-0.247-2.4,2.363v18.905
		c0,2.61-0.251,2.363,2.4,2.363h19.2c2.651,0,2.4,0.247,2.4-2.363V2.37z M22.994,22.799H1.019V0.813h21.975V22.799z"/>
	<rect x="11.097" y="16.786" fill="#959AA3" width="1.759" height="1.991"/>
	<path fill="#959AA3" d="M10.005,8.775c0.092-0.34,0.239-0.634,0.441-0.883c0.201-0.249,0.389-0.464,0.689-0.611
		c0.299-0.147,0.506-0.2,0.921-0.2c0.622,0,1.298,0.172,1.661,0.523c0.363,0.351,0.438,0.838,0.484,1.461
		c0.051,0.934-0.276,1.31-0.786,1.894c-0.223,0.255-1.145,1.151-1.362,1.402c-0.225,0.26-0.398,0.542-0.553,0.875
		c-0.156,0.334-0.266,0.756-0.289,1.231v0.881h1.742v-0.663c0-0.294,0.043-0.64,0.129-0.872c0.087-0.232,0.201-0.447,0.345-0.646
		c0.144-0.198,0.139-0.385,0.317-0.561c0.178-0.175,0.441-0.348,0.625-0.518c0.184-0.181,0.44-0.368,0.619-0.561
		c0.179-0.192,0.233-0.402,0.371-0.628c0.138-0.227,0.082-0.478,0.168-0.756c0.086-0.277,0.234-0.592,0.234-0.943
		c0-0.543-0.056-1.025-0.234-1.444c-0.179-0.419-0.45-0.81-0.772-1.098c-0.323-0.289-0.78-0.64-1.223-0.793
		c-0.443-0.153-0.936-0.192-1.477-0.192c-0.599,0-1.107,0.102-1.59,0.306c-0.484,0.204-0.796,0.51-1.13,0.878
		C9.001,7.224,8.749,7.768,8.571,8.266C8.392,8.764,8.346,9.214,8.357,9.792h1.509C9.866,9.395,9.912,9.115,10.005,8.775z"/>
</g>
</svg>
