<?xml version="1.0" encoding="utf-8"?>
<!-- Generator: Adobe Illustrator 16.0.0, SVG Export Plug-In . SVG Version: 6.00 Build 0)  -->
<!DOCTYPE svg PUBLIC "-//W3C//DTD SVG 1.1//EN" "http://www.w3.org/Graphics/SVG/1.1/DTD/svg11.dtd">
<svg version="1.1" id="Слой_1" xmlns="http://www.w3.org/2000/svg" xmlns:xlink="http://www.w3.org/1999/xlink" x="0px" y="0px"
	 width="21px" height="24px" viewBox="0 0 21 24" enable-background="new 0 0 21 24" xml:space="preserve">
<path fill="#959AA3" d="M9.5,24h-8C0.673,24,0,23.327,0,22.5v-21C0,0.673,0.673,0,1.5,0h8C10.327,0,11,0.673,11,1.5v21
	C11,23.327,10.327,24,9.5,24z M1.5,1C1.224,1,1,1.224,1,1.5v21C1,22.775,1.224,23,1.5,23h8c0.276,0,0.5-0.225,0.5-0.5v-21
	C10,1.224,9.776,1,9.5,1H1.5z"/>
<path fill="#959AA3" d="M7,7H4V4h3V7z"/>
<path fill="#959AA3" d="M7,13.5H4v-3h3V13.5z"/>
<path fill="#959AA3" d="M7,20H4v-3h3V20z"/>
<path fill="#959AA3" d="M19.5,24h-8c-0.827,0-1.5-0.673-1.5-1.5v-15C10,6.673,10.673,6,11.5,6h8C20.327,6,21,6.673,21,7.5v15
	C21,23.327,20.327,24,19.5,24z M11.5,7C11.224,7,11,7.224,11,7.5v15c0,0.275,0.224,0.5,0.5,0.5h8c0.276,0,0.5-0.225,0.5-0.5v-15
	C20,7.224,19.776,7,19.5,7H11.5z"/>
<path fill="#959AA3" d="M17,13.5h-3v-3h3V13.5z"/>
<path fill="#959AA3" d="M17,20h-3v-3h3V20z"/>
<path fill="#959AA3" d="M9.624,23.419H11.5V24H9.624V23.419z"/>
<path fill="#959AA3" d="M10.623,6.59H12V6h-1.377V6.59z"/>
</svg>
