<?xml version="1.0" encoding="utf-8"?>
<!-- Generator: Adobe Illustrator 16.0.0, SVG Export Plug-In . SVG Version: 6.00 Build 0)  -->
<!DOCTYPE svg PUBLIC "-//W3C//DTD SVG 1.1//EN" "http://www.w3.org/Graphics/SVG/1.1/DTD/svg11.dtd">
<svg version="1.1" id="Слой_1" xmlns="http://www.w3.org/2000/svg" xmlns:xlink="http://www.w3.org/1999/xlink" x="0px" y="0px"
	 width="23.876px" height="23.003px" viewBox="0 0 23.876 23.003" enable-background="new 0 0 23.876 23.003" xml:space="preserve">
<path fill="#959AA3" d="M19.463,12.703c-0.391,0-0.581,0.307-0.581,0.708v8.572h-3.983V17.63c0-0.37-0.303-0.694-0.669-0.694H9.574
	c-0.392,0-0.707,0.323-0.707,0.694v4.352H4.872v-8.655c0-0.373-0.002-0.617-0.394-0.617c-0.366,0-0.604,0.244-0.604,0.617v8.994
	c0,0.373,0.303,0.683,0.669,0.683h4.695c0.366,0,0.669-0.31,0.669-0.683v-4.197H13.9v4.197c0,0.373,0.303,0.683,0.695,0.683h4.632
	c0.366,0,0.669-0.31,0.669-0.683v-8.91C19.896,13.01,19.83,12.703,19.463,12.703z"/>
<path fill="#959AA3" d="M23.774,11.85l-5.868-5.854V1.799c0-0.397-0.109-0.573-0.5-0.573c-0.366,0-0.532,0.197-0.532,0.594v2.978
	l-4.477-4.579C12.259,0.077,12.094,0,11.93,0c-0.189,0-0.354,0.08-0.492,0.219L0.086,11.773c-0.272,0.277,0.164,0.549,0.455,0.804
	c0.252,0.296,0.814-0.28,1.086-0.556l10.272-10.97l10.684,11.317c0.113,0.115,0.327,0.282,0.542,0.282
	c0.189,0,0.204,0.069,0.343-0.046C23.721,12.347,24.045,12.129,23.774,11.85z"/>
</svg>
