<?xml version="1.0" encoding="utf-8"?>
<!-- Generator: Adobe Illustrator 16.0.0, SVG Export Plug-In . SVG Version: 6.00 Build 0)  -->
<!DOCTYPE svg PUBLIC "-//W3C//DTD SVG 1.1//EN" "http://www.w3.org/Graphics/SVG/1.1/DTD/svg11.dtd">
<svg version="1.1" id="Слой_1" xmlns="http://www.w3.org/2000/svg" xmlns:xlink="http://www.w3.org/1999/xlink" x="0px" y="0px"
	 width="23.998px" height="24.002px" viewBox="0 0 23.998 24.002" enable-background="new 0 0 23.998 24.002" xml:space="preserve">
<path fill-rule="evenodd" clip-rule="evenodd" fill="#FFFFFF" d="M23.919,20.673c-0.145,0.246-0.354,0.375-0.642,0.375H0.733
	c-0.288,0-0.499-0.128-0.642-0.375C0.025,20.558,0,20.296,0,20.179c0-0.142,0.055-0.27,0.144-0.401
	c0.932-1.369,1.631-2.833,2.108-4.37c0.479-1.54,1.363-3.505,1.744-6.413C4.217,7.302,4.464,5.61,5.237,4.692
	c0.393-0.466,0.837-0.881,1.335-1.241c1.007-0.726,1.82-1.06,2.763-1.332c0.13-0.607,0.445-1.112,0.942-1.512
	C10.775,0.207,11.351,0,11.993,0c0.654,0,1.228,0.21,1.728,0.608c0.508,0.404,0.825,0.905,0.956,1.512
	c0.942,0.271,1.751,0.612,2.75,1.332c0.507,0.366,0.948,0.781,1.335,1.241c0.779,0.924,1.481,2.353,1.702,4.047
	c0.381,2.908,0.806,5.134,1.283,6.67c0.479,1.541,1.183,3.162,2.121,4.527c0.084,0.122,0.131,0.246,0.131,0.388
	C23.998,20.44,23.972,20.557,23.919,20.673z M20.162,15.086c-0.419-1.564-0.8-3.619-1.152-6.166
	c-0.198-1.435-0.765-2.633-1.44-3.413c-0.333-0.383-0.724-0.719-1.166-1.021c-0.88-0.603-1.665-0.881-2.566-1.099
	c-0.33-0.08-0.563-0.362-0.563-0.685V2.676c0-0.685-0.563-1.241-1.283-1.241c-0.694,0-1.283,0.555-1.283,1.241v0.026
	c0,0.323-0.211,0.613-0.537,0.685c-0.905,0.2-1.677,0.508-2.58,1.099C6.322,5.318,5.305,6.708,4.988,8.92
	c-0.364,2.545-0.739,4.613-1.151,6.179c-0.412,1.563-1.056,3.566-1.841,4.897h20C21.209,18.652,20.581,16.65,20.162,15.086z
	 M13.504,23.371c-0.411,0.419-0.904,0.631-1.502,0.631c-0.584,0-1.085-0.206-1.516-0.631c-0.417-0.412-0.626-0.906-0.626-1.483
	h4.269C14.13,22.464,13.914,22.952,13.504,23.371z"/>
</svg>
