<?xml version="1.0" encoding="utf-8"?>
<!-- Generator: Adobe Illustrator 16.0.0, SVG Export Plug-In . SVG Version: 6.00 Build 0)  -->
<!DOCTYPE svg PUBLIC "-//W3C//DTD SVG 1.1//EN" "http://www.w3.org/Graphics/SVG/1.1/DTD/svg11.dtd">
<svg version="1.1" id="Слой_1" xmlns="http://www.w3.org/2000/svg" xmlns:xlink="http://www.w3.org/1999/xlink" x="0px" y="0px"
	 width="15.97px" height="15.99px" viewBox="0 0 15.97 15.99" enable-background="new 0 0 15.97 15.99" xml:space="preserve">
<path fill-rule="evenodd" clip-rule="evenodd" fill="#8FBC4C" d="M15.802,15.004l-3.909-3.878c0.997-1.178,1.6-2.7,1.6-4.366
	c0-3.733-3.02-6.76-6.746-6.76C3.021,0,0,3.026,0,6.76c0,3.733,3.021,6.76,6.747,6.76c1.648,0,3.157-0.594,4.329-1.578l3.911,3.88
	c0.225,0.225,0.59,0.225,0.815,0C16.027,15.595,16.027,15.229,15.802,15.004z M6.763,12.338c-3.063,0-5.547-2.491-5.547-5.564
	s2.484-5.564,5.547-5.564c3.064,0,5.547,2.491,5.547,5.564S9.826,12.338,6.763,12.338z"/>
</svg>
