<?xml version="1.0" encoding="utf-8"?>
<!-- Generator: Adobe Illustrator 16.0.0, SVG Export Plug-In . SVG Version: 6.00 Build 0)  -->
<!DOCTYPE svg PUBLIC "-//W3C//DTD SVG 1.1//EN" "http://www.w3.org/Graphics/SVG/1.1/DTD/svg11.dtd">
<svg version="1.1" id="Слой_1" xmlns="http://www.w3.org/2000/svg" xmlns:xlink="http://www.w3.org/1999/xlink" x="0px" y="0px"
	 width="19px" height="24px" viewBox="0 0 19 24" enable-background="new 0 0 19 24" xml:space="preserve">
<path fill="#959AA3" d="M17.5,24h-16C0.673,24,0,23.327,0,22.5v-21C0,0.673,0.673,0,1.5,0h16C18.327,0,19,0.673,19,1.5v21
	C19,23.327,18.327,24,17.5,24z M1.5,1C1.224,1,1,1.224,1,1.5v21C1,22.775,1.224,23,1.5,23h16c0.276,0,0.5-0.225,0.5-0.5v-21
	C18,1.224,17.776,1,17.5,1H1.5z"/>
<path fill="#959AA3" d="M16,9H3V7h13V9z"/>
<path fill="#959AA3" d="M16,5H7V3h9V5z"/>
<path fill="#959AA3" d="M16,21H3v-2h13V21z"/>
<path fill="#959AA3" d="M16,17H3v-2h13V17z"/>
<path fill="#959AA3" d="M16,13H3v-2h13V13z"/>
</svg>
