<?xml version="1.0" encoding="utf-8"?>
<!-- Generator: Adobe Illustrator 16.0.0, SVG Export Plug-In . SVG Version: 6.00 Build 0)  -->
<!DOCTYPE svg PUBLIC "-//W3C//DTD SVG 1.1//EN" "http://www.w3.org/Graphics/SVG/1.1/DTD/svg11.dtd">
<svg version="1.1" id="Слой_1" xmlns="http://www.w3.org/2000/svg" xmlns:xlink="http://www.w3.org/1999/xlink" x="0px" y="0px"
	 width="25.997px" height="22.001px" viewBox="0 0 25.997 22.001" enable-background="new 0 0 25.997 22.001" xml:space="preserve">
<path fill-rule="evenodd" clip-rule="evenodd" fill="#FFFFFF" d="M24.998,19.006c0,0-2.7,0.01-5.014,0.01
	c0.01,0.959,0.008,2.472-0.013,2.61c-0.04,0.259-0.684,0.51-0.958,0.292c-0.697-0.578-1.015-1.197-2.077-2.912
	c-0.164,0-0.777,0-0.938,0c-2.625,0-4,0-4,0c-0.827,0-0.985-0.321-0.985-1.153v-0.867c0.242,0.01,1.033,0.028,1.033,0.028
	l-0.034,0.977l5.923,0.011l1.063,2v-1.994h6V9.021h-6.02V8.037H24.5c0.827,0,1.497,0.331,1.497,1.163v8.654
	C25.997,18.686,25.825,19.006,24.998,19.006z M11.013,16.981c-0.402,0-0.782,0-1.123,0c-0.161,0-0.323,0-0.486,0
	c-0.692,0.61-1.972,1.731-2.668,2.308c-0.275,0.219-0.888-0.032-0.928-0.291c-0.021-0.138-0.023-1.058-0.013-2.017
	c-2.314,0-4.672,0-4.672,0c-0.827,0-1.122-0.3-1.122-1.132V1.101C0,0.269,0.139,0,0.966,0h16.982c0.827,0,1.029,0.238,1.029,1.069
	v14.156c0,0.832-0.764,1.756-1.591,1.756C17.386,16.981,13.7,16.981,11.013,16.981v0.005C10.929,16.983,10.91,16.981,11.013,16.981z
	 M17.953,15.981l0.034-14.954L1.001,1.037v14.944h5.945l0.012,1.96l2.02-1.96H17.953z M4.654,11.585v-0.043
	c0-0.284,0.229-0.545,0.511-0.545h9.065c0.282,0,0.511,0.279,0.511,0.563v0.025c0,0.284-0.229,0.443-0.511,0.443H5.166
	C4.883,12.028,4.654,11.869,4.654,11.585z M11.984,6.035H5.166c-0.282,0-0.511-0.159-0.511-0.443V5.548
	c0-0.284,0.229-0.545,0.511-0.545h6.819c0.282,0,0.511,0.279,0.511,0.563v0.025C12.496,5.875,12.267,6.035,11.984,6.035z
	 M5.166,8.015h4.573c0.282,0,0.511,0.248,0.511,0.532v0.025c0,0.284-0.229,0.443-0.511,0.443H5.166
	c-0.282,0-0.511-0.159-0.511-0.443V8.529C4.654,8.246,4.883,8.015,5.166,8.015z"/>
</svg>
